<?xml version="1.0" encoding="UTF-8"?><svg id="Capa_2" xmlns="http://www.w3.org/2000/svg" viewBox="0 0 1058.93 260.46"><defs><style>.cls-1,.cls-2{fill-rule:evenodd;}.cls-1,.cls-2,.cls-3{stroke-width:0px;}.cls-1,.cls-3{fill:#00063f;}.cls-2{fill:#cbd600;}</style></defs><g id="Capa_2-2"><path class="cls-3" d="m418.9,137.88v19.21c-26.79-3.79-42.22,10.28-42.22,35.72v64.4h-22.45v-119.33h19.74l2.71,18.13c4.05-12.45,16.24-19.21,30.85-19.21,4.34,0,8.66.54,11.37,1.08Z"/><path class="cls-3" d="m556.41,137.88v119.33h-21.11v-21.11c-7.84,14.34-24.9,24.36-46,24.36-33.01,0-56.56-24.9-56.56-62.51s24.08-63.59,58.19-63.59c20.29,0,36.53,8.66,44.9,22.73l1.89-19.21h18.68Zm-23,58.99c0-25.98-15.69-42.22-38.69-42.22s-38.98,17.32-38.98,42.76,15.42,42.76,38.43,42.76,39.24-17.05,39.24-43.29Z"/><path class="cls-3" d="m602.5,137.88l14.08,37.61c7.56,19.75,21.37,57.9,21.37,57.9,0,0,14.61-38.95,22.19-57.9l14.87-37.61h23.55l-49.79,119.33h-22.45l-48.16-119.33h24.35Z"/><path class="cls-3" d="m769.25,260.46c-36.53,0-60.9-25.44-60.9-63.32s25.16-62.77,60.08-62.77,57.09,23.54,57.09,56.55c0,6.22-.26,10.01-1.08,13.53h-93.9c.82,22.74,16.24,37.61,38.71,37.61,16.77,0,30.03-8.11,34.64-20.56h21.9c-5.4,23.54-28.4,38.97-56.54,38.97Zm33.53-72.25c-.26-21.38-14.34-34.91-34.64-34.91-21.37,0-36.53,13.53-37.32,34.91h71.96Z"/><path class="cls-3" d="m959.02,183.33v73.88h-22.74v-68.73c0-24.62-11.1-33.82-27.32-33.82-20.31,0-32.21,13.53-32.21,31.93v70.35h-22.45v-119.06h18.66l2.16,16.78c7.31-12.17,22.74-20.29,39.24-20.29,26.53,0,44.66,17.32,44.66,48.97Z"/><path class="cls-1" d="m265.09,130.99c-15.81,0-30.3,5.68-41.54,15.1v-79.83h-23.15v127.72s0,.03,0,.05c-.01.56-.04,1.12-.04,1.69,0,35.75,28.98,64.73,64.73,64.73s64.73-28.98,64.73-64.73-28.98-64.73-64.73-64.73Zm0,105.81c-22.69,0-41.08-18.39-41.08-41.08s18.39-41.08,41.08-41.08,41.08,18.39,41.08,41.08-18.39,41.08-41.08,41.08Z"/><polygon class="cls-3" points="1058.93 134.59 1028.42 134.59 1028.42 104.07 1005.89 104.07 1005.89 134.59 975.38 134.59 975.38 157.11 1005.89 157.11 1005.89 257.21 1028.42 257.21 1028.42 157.11 1058.93 157.11 1058.93 134.59"/><path class="cls-2" d="m79.58,98.06c-6.12,0-12.08.69-17.81,2v-34.4L0,0v257.21h79.58c43.95,0,79.58-35.63,79.58-79.58s-35.63-79.58-79.58-79.58Z"/></g></svg>