<svg xmlns="http://www.w3.org/2000/svg" width="842" height="595" version="1.2"><style>.s2{fill:#2a3b46}</style><g id="Capa 1"><g id="&lt;Group&gt;"><path id="&lt;Path&gt;" d="M280.1 275c-5.5 0-10-4.5-10-10 0-5.6 4.5-10.1 10-10.1 5.6 0 10.1 4.5 10.1 10.1 0 5.5-4.5 10-10.1 10" style="fill:#f6a61a"/><path d="M280.1 240.5c-5.5 0-10-4.5-10-10.1 0-5.5 4.5-10 10-10 5.6 0 10.1 4.5 10.1 10 0 5.6-4.5 10.1-10.1 10.1" style="fill:#56c3e8"/><path d="M583.4 208.1c-1.2-1.4-2.7-2.2-4.4-2.2h-42.1v56.9c0 9.3 2.5 16.2 7.4 20.4 4.8 4.2 11.9 6.3 21.1 6.3h5.8c1.7 0 3.3-.8 4.4-2.2q1.6-2 1.6-4.6 0-2.7-1.6-4.7c-1.1-1.4-2.6-2.1-4.4-2.1h-5.8c-5.3 0-9-1-11-2.8-1.9-1.9-2.9-5.3-2.9-10.3v-43.4H579c1.7 0 3.3-.7 4.4-2.1q1.6-2 1.6-4.6 0-2.7-1.6-4.6M367.9 215.5c-3-3-6.7-5.3-10.7-7-4.1-1.7-8.5-2.6-13.1-2.6h-.2c-4.5 0-8.9.9-13 2.6s-7.7 4-10.7 7c-3.1 3-5.5 6.5-7.2 10.4-1.8 3.9-2.7 8.1-2.7 12.5v45.2c0 3.2 2.6 5.9 5.9 5.9h2.6c3.3 0 5.9-2.7 5.9-5.9l.1-46.4c0-2.4.5-4.8 1.5-7s2.4-4.1 4.1-5.8c1.8-1.6 3.8-2.9 6.1-3.8 2.3-1 4.9-1.5 7.5-1.5q4.05 0 7.5 1.5c2.3.9 4.4 2.2 6.1 3.8 1.8 1.7 3.2 3.6 4.2 5.8s1.5 4.6 1.5 7v46.4c0 3.2 2.7 5.9 5.9 5.9h2.7c3.2 0 5.9-2.7 5.9-5.9v-45.2c0-4.4-.9-8.6-2.7-12.5-1.7-3.9-4.2-7.4-7.2-10.4M526.9 280.2v-.1q0-.1-.1-.3-.2-.6-.6-1.2l-22.4-31.2 21.9-30.4q.1-.1.2-.3v-.1c1.1-1.5 1.4-3.3.8-5.1q-.7-2.6-3.1-4.2t-5.1-1.4c-2 .2-3.6 1.1-4.6 2.6l-.1.1q-.2.3-.5.6l-19 27.4-19.1-27.4q-.2-.3-.5-.6v-.1c-1.1-1.5-2.7-2.4-4.7-2.6q-2.7-.2-5.1 1.4-2.3 1.6-3.1 4.2c-.5 1.8-.3 3.6.8 5.1l.1.1q.1.2.2.3l21.9 30.4-22.4 31.2q-.4.6-.6 1.2-.1.2-.2.3v.1c-.4 1.2-.4 2.4-.1 3.7q.8 2.6 3.2 4.2 2.3 1.6 5.1 1.3c1.9-.1 3.5-1 4.6-2.5l.1-.1.2-.4 19.6-28 19.5 28q.1.2.3.4v.1c1.1 1.5 2.7 2.4 4.7 2.5q2.7.3 5.1-1.3 2.3-1.6 3.1-4.2c.4-1.3.4-2.5-.1-3.7" class="s2"/><path id="&lt;Compound Path&gt;" fill-rule="evenodd" d="M401.8 253.8v3.1c0 6 2 10.7 6.4 14.2 4.3 3.6 10 5.4 16.7 5.4 3.1 0 5.6-.4 7.5-1q2.2-.6 3.9-1.5l6.1-3.4c2.6-1.4 6-.5 7.4 2.2l1.2 2.1c1.4 2.6.3 5.7-2.1 7.4 0 0-5.9 4.1-13.6 5.9-3.1.8-6.7 1.3-10.7 1.3-5.3 0-10.3-.8-14.8-2.4-4.5-1.5-8.5-3.8-11.8-6.6-3.3-2.9-5.9-6.5-7.8-10.5-1.8-4.1-2.8-8.6-2.8-13.6V238c0-4.3.9-8.5 2.7-12.4 1.7-3.8 4.1-7.3 7.1-10.2 3-3 6.6-5.3 10.6-7 4-1.6 8.4-2.5 12.9-2.5 4.2 0 8.4.8 12.3 2.4 3.9 1.5 7.4 3.7 10.4 6.5 2.9 2.8 5.3 6.1 7.1 10q2.7 5.85 2.7 12.9c0 3-.3 7.1-1.4 9.3q-1.4 3.1-3.8 4.7t-5.5 1.9q-2.7.2-5.4.2zm0-12.7h31.5c4 0 5.3-.5 5.7-.8.5-.3.8-1.3.8-2.9 0-2.3-.5-4.6-1.4-6.7q-1.35-3.3-3.9-6-2.4-2.55-6-4.2c-2.3-1-4.9-1.5-7.7-1.5-2.6 0-5.1.5-7.4 1.4s-4.3 2.2-6 3.8q-2.6 2.4-4.1 5.7t-1.5 6.9z" class="s2"/></g><path d="M493.4 302.8c-.7-.8-1.6-1.3-2.5-1.3H467v32.4c0 5.2 1.4 9.1 4.2 11.5 2.7 2.4 6.8 3.6 12 3.6h3.2c1 0 1.9-.4 2.6-1.2q.9-1.2.9-2.7t-.9-2.6c-.7-.8-1.5-1.2-2.5-1.2h-3.3q-4.6 0-6.3-1.6-1.6-1.6-1.6-5.8v-24.7h15.6c1 0 1.8-.4 2.5-1.2q.9-1.1.9-2.6t-.9-2.6M349.1 325.2q0-4.9-1.8-9.1c-1.1-2.9-2.8-5.4-4.8-7.5-2.1-2.1-4.5-3.7-7.2-5-2.7-1.2-5.6-1.8-8.6-1.8h-11.8c-2.6 0-4.6 2.1-4.6 4.6s2 4.5 4.6 4.5l12.3.1q3 0 5.4 1.1 2.5 1.1 4.3 3 1.8 2 2.9 4.5 1 2.6 1 5.5 0 3-1 5.5-1.1 2.6-2.9 4.5-1.8 2-4.3 3.1-2.4 1.1-5.4 1.1h-12.3c-2.6 0-4.6 2.1-4.6 4.6s2 4.6 4.6 4.6h11.8c3 0 5.9-.7 8.6-1.9s5.1-2.9 7.2-5c2-2.1 3.7-4.6 4.8-7.4 1.2-2.8 1.8-5.9 1.8-9M423.9 325.5c-2.5 0-4.6 2-4.6 4.5v9.3h-8q-3 0-5.4-1.1-2.5-1.1-4.3-3.1-1.8-1.9-2.9-4.5-1-2.5-1-5.5 0-2.9 1-5.5 1.1-2.5 2.9-4.5 1.8-1.9 4.3-3 2.4-1.1 5.4-1.1l12.3-.1c2.6 0 4.6-2 4.6-4.5s-2-4.6-4.6-4.6h-11.8c-3 0-5.9.6-8.6 1.8-2.7 1.3-5.1 2.9-7.2 5-2 2.1-3.7 4.6-4.8 7.5q-1.8 4.2-1.8 9 0 4.9 1.8 9.1c1.1 2.8 2.8 5.3 4.8 7.4 2.1 2.1 4.5 3.8 7.2 5s5.6 1.9 8.6 1.9h12.8c1.6 0 3-1.1 3.5-2.7q.1-.5.1-.9c.2-1.2.2-2.2.2-3.1V330c0-2.5-2-4.5-4.5-4.5" class="s2"/><path fill-rule="evenodd" d="M537 321.9v-1.8c0-3.5-1.2-6.1-3.7-8.2-2.5-2-5.8-3-9.7-3q-2.6 0-4.3.5-1.2.4-2.2.8l-3.5 2c-1.5.8-3.4.3-4.3-1.2l-.6-1.2c-.9-1.5-.2-3.3 1.2-4.3 0 0 3.3-2.4 7.8-3.4 1.8-.5 3.8-.7 6.1-.7 3.1 0 6 .4 8.5 1.3 2.6.9 4.9 2.2 6.8 3.9 1.9 1.6 3.4 3.7 4.5 6s1.6 4.9 1.6 7.8V331c0 2.5-.5 4.8-1.5 7.1-1 2.2-2.4 4.2-4.1 5.9s-3.8 3-6.1 4c-2.3.9-4.8 1.4-7.4 1.4-2.5 0-4.9-.4-7.1-1.3-2.3-.9-4.3-2.2-6-3.8s-3-3.5-4.1-5.7c-1-2.3-1.5-4.8-1.5-7.4 0-1.8.2-4.1.8-5.4q.8-1.8 2.2-2.7 1.3-.9 3.1-1.1 1.6-.1 3.1-.1zm0 7.3h-18.1c-2.3 0-3 .3-3.2.4-.3.2-.5.8-.5 1.7q0 2 .8 3.9t2.2 3.4 3.4 2.4q2.1.9 4.5.9 2.3 0 4.3-.8 1.9-.8 3.4-2.2t2.4-3.3q.8-1.9.8-3.9z" class="s2"/><path d="M561 301.1v32.8c0 5.5 1.4 9.6 4.3 12.1s7.1 3.8 12.6 3.8h3.4c1 0 2-.5 2.6-1.3q1-1.2 1-2.8t-1-2.8c-.6-.8-1.5-1.2-2.6-1.2h-3.4q-4.8 0-6.5-1.7-1.8-1.6-1.8-6.1v-32.8zM373.6 343.5v-38.1c0-2.4-2-4.3-4.3-4.3-2.4 0-4.4 1.9-4.4 4.3v38.1c0 3 2 5.5 4.4 5.5 2.3 0 4.3-2.5 4.3-5.5M453.2 343.5v-38.1c0-2.4-1.9-4.3-4.3-4.3s-4.4 1.9-4.4 4.3v38.1c0 3 2 5.5 4.4 5.5s4.3-2.5 4.3-5.5" class="s2"/></g></svg>